<svg width="152" height="49" viewBox="0 0 152 49" fill="none" xmlns="http://www.w3.org/2000/svg">
<path d="M130.981 48.3102L130.947 48.3146C130.901 48.3172 130.844 48.3198 130.765 48.3216C130.605 48.3286 130.377 48.3357 130.081 48.3409C129.501 48.348 128.658 48.3409 127.656 48.2864C125.652 48.1721 122.987 47.8609 120.38 47.0757C115.165 45.5054 110.155 42.0649 110.906 34.4937H124.946C124.695 37.4418 125.606 39.1748 130.172 39.8114L130.184 39.7569V39.8114V39.7569L130.172 39.8114H130.184C131.96 39.8967 133.486 39.6733 134.556 39.0702C135.627 38.4697 136.253 37.4867 136.241 36.0843H136.173H136.241C136.219 32.7467 127.747 31.5474 123.819 30.2083L123.796 30.261C123.796 30.261 123.796 30.261 123.796 30.2602L123.819 30.2083C119.924 28.7822 114.778 27.1274 114.766 21.6506H114.687H114.766C114.778 18.7658 115.803 16.8147 116.964 15.5425L116.907 15.51C116.907 15.5091 116.907 15.5091 116.907 15.5091L116.964 15.5425C120.665 11.6562 125.584 10.2125 132.575 9.61463C139.179 9.34206 144.189 10.4815 147.446 12.5724C150.691 14.6553 152.206 17.6799 151.841 21.2224C151.818 21.2233 151.761 21.2233 151.693 21.225C151.477 21.2277 151.055 21.2303 150.236 21.2303C148.573 21.2303 145.282 21.2233 138.701 21.2136C138.724 19.0788 137.528 18.0852 136.321 17.6456C135.718 17.4223 135.103 17.3344 134.647 17.3036C134.42 17.2869 134.226 17.2843 134.089 17.2869C134.021 17.2869 133.976 17.2869 133.93 17.2895C133.896 17.2895 133.884 17.2895 133.873 17.2895L133.85 17.3485C133.85 17.3485 133.85 17.3485 133.85 17.3493C133.862 17.2922 133.85 17.2922 133.839 17.2922C133.816 17.2939 133.782 17.2939 133.736 17.2966C133.645 17.2992 133.52 17.3062 133.361 17.3177C133.031 17.3441 132.598 17.3959 132.142 17.5102C131.243 17.7336 130.264 18.2013 130.036 19.172C129.58 21.0923 131.448 21.5961 132.86 22.1439C136.185 23.4021 139.612 24.2786 142.777 25.4982C147.378 27.2698 151.01 29.6438 151.021 34.8806C151.01 41.2331 146.66 48.2978 131.004 48.3102L130.992 48.3664L130.981 48.3673C130.992 48.3102 130.992 48.3102 130.981 48.3102Z" fill="#231F20"/>
<path d="M127.644 48.398C125.629 48.2837 122.953 47.9725 120.323 47.1803C115.062 45.6038 109.972 42.0833 110.769 34.4339V34.382H125.025V34.4374V34.382H125.094V34.4409C124.866 37.418 125.652 39.0393 130.195 39.6996C131.96 39.7823 133.44 39.5607 134.476 38.9804C135.501 38.401 136.105 37.4629 136.093 36.0842H136.173C136.184 38.8661 133.736 39.9221 130.184 39.7568V39.7445V39.7568C125.618 39.1062 124.775 37.418 125.025 34.4391H110.838C109.301 49.3801 130.149 48.4288 130.981 48.3672C130.981 48.3804 130.981 48.3963 130.969 48.4165L131.003 48.4182V48.3646C146.694 48.362 151.089 41.2498 151.089 34.8805C151.089 29.6218 147.411 27.2196 142.811 25.4488C139.634 24.2258 136.207 23.3501 132.894 22.0946C131.47 21.5389 129.671 21.0588 130.104 19.1816C130.525 17.4117 133.508 17.3625 133.85 17.3493C133.839 17.3607 133.839 17.3747 133.839 17.3915L133.85 17.3484C133.873 17.3475 133.873 17.3475 133.873 17.3466C133.907 17.3633 138.701 16.9518 138.632 21.2707C151.75 21.2892 151.875 21.2892 151.909 21.2707L151.955 21.3129L151.909 21.2707C152.672 14.1224 145.806 9.01403 132.563 9.56004C125.561 10.1553 120.619 11.606 116.907 15.509L116.85 15.4756C120.573 11.5586 125.549 10.1008 132.552 9.50288H132.563V9.5398V9.55827V9.50288C139.19 9.22944 144.246 10.3716 147.537 12.487C150.213 14.1981 151.716 16.5491 152 19.288V21.1511C151.989 21.1924 151.989 21.2338 151.978 21.2751V21.2962L151.955 21.3129L151.875 21.3322C151.852 21.3349 151.795 21.3366 151.693 21.3366C151.477 21.3393 151.055 21.3419 150.235 21.3419C148.573 21.3419 145.26 21.3366 138.632 21.3278H138.553V21.2707H138.632H138.553C138.587 19.1271 137.425 18.1793 136.264 17.7449C135.068 17.3106 133.93 17.4178 133.839 17.3915L133.873 17.4029H133.85C133.827 17.4055 133.793 17.4055 133.748 17.4082C133.657 17.4108 133.531 17.4179 133.372 17.4293C133.053 17.4557 132.632 17.5075 132.199 17.6165C131.311 17.8355 130.389 18.2769 130.172 19.1913C129.751 21.0254 131.482 21.4791 132.928 22.0435V22.0418C136.23 23.2956 139.669 24.174 142.845 25.3988C147.457 27.1678 151.169 29.598 151.169 34.8805C151.169 38.0757 150.065 41.459 146.99 44.0484C143.916 46.636 138.86 48.4191 131.003 48.4218V48.4209V48.4218L130.958 48.4262C130.912 48.4288 130.855 48.4305 130.776 48.4358C130.616 48.4402 130.377 48.4499 130.093 48.4525C129.967 48.4534 129.842 48.4543 129.694 48.4543C129.147 48.4543 128.453 48.4411 127.644 48.398ZM130.969 48.4165L130.992 48.3664C131.003 48.3655 131.003 48.3646 131.003 48.3646L130.969 48.4165ZM136.093 36.0842C136.15 32.9031 127.713 31.6396 123.762 30.3102L123.796 30.261L123.762 30.3102L123.796 30.261C127.735 31.5948 136.184 32.8248 136.173 36.0842H136.093ZM114.618 21.6505H114.686C114.698 27.1625 119.901 28.8383 123.796 30.2601L123.762 30.3102C119.879 28.8929 114.629 27.1986 114.618 21.6505C114.629 18.7446 115.677 16.7672 116.85 15.4782V15.4756L116.907 15.509L116.85 15.4782L116.907 15.5099C115.734 16.7918 114.698 18.7543 114.686 21.6505H114.618Z" fill="#231F20"/>
<path d="M110.838 34.439H125.026C124.775 37.4179 125.618 39.1061 130.184 39.7567L130.172 39.8112C125.606 39.1747 124.695 37.4417 124.946 34.4936H110.906C110.155 42.0647 115.165 45.5052 120.38 47.0755C122.987 47.8607 125.652 48.1719 127.656 48.2862C128.658 48.3408 129.501 48.3478 130.081 48.3408C130.377 48.3355 130.605 48.3285 130.764 48.3214C130.844 48.3197 130.901 48.317 130.947 48.3144L130.981 48.31C130.992 48.31 130.992 48.31 130.981 48.3671C130.867 48.3751 130.4 48.3988 129.683 48.3988C124.98 48.3988 109.506 47.385 110.838 34.439ZM131.004 48.31V48.3645C131.004 48.3645 131.003 48.3654 130.992 48.3663L131.004 48.31C146.66 48.2977 151.01 41.233 151.021 34.8804C151.01 29.6436 147.377 27.2697 142.777 25.498L142.811 25.4487L142.777 25.498C139.612 24.2785 136.184 23.4019 132.86 22.1437C131.448 21.5959 129.58 21.0921 130.036 19.1718C130.263 18.2012 131.243 17.7334 132.142 17.5101C132.598 17.3958 133.03 17.3439 133.361 17.3175C133.52 17.3061 133.645 17.2991 133.736 17.2964C133.782 17.2938 133.816 17.2938 133.839 17.292C133.85 17.292 133.862 17.292 133.85 17.3492C133.509 17.3624 130.525 17.4116 130.104 19.1815C129.671 21.0587 131.47 21.5388 132.894 22.0945C136.207 23.35 139.635 24.2257 142.811 25.4487C147.412 27.2195 151.09 29.6217 151.09 34.8804C151.09 41.2497 146.694 48.3619 131.004 48.3645V48.31ZM132.86 22.1437L132.894 22.0945L132.86 22.1437ZM130.184 39.8112H130.172L130.184 39.7567V39.8112V39.7567C133.736 39.922 136.184 38.866 136.173 36.0841H136.241C136.253 37.4865 135.626 38.4695 134.556 39.07C133.622 39.5914 132.37 39.8288 130.901 39.8288C130.662 39.8288 130.423 39.8227 130.184 39.8112ZM136.173 36.0841C136.184 32.8247 127.736 31.5947 123.796 30.2609L123.819 30.2081C127.747 31.5472 136.219 32.7465 136.241 36.0841H136.173ZM114.687 21.6504H114.766C114.778 27.1272 119.924 28.782 123.819 30.2081L123.796 30.26C119.902 28.8382 114.698 27.1624 114.687 21.6504C114.698 18.7542 115.734 16.7917 116.907 15.5098L116.964 15.5423C115.802 16.8146 114.778 18.7656 114.766 21.6504H114.687ZM138.633 21.2706C138.701 16.9517 133.907 17.3632 133.873 17.3465C133.873 17.3474 133.873 17.3474 133.85 17.3483L133.873 17.2894C133.884 17.2894 133.896 17.2894 133.93 17.2894C133.975 17.2867 134.021 17.2867 134.089 17.2867C134.226 17.2841 134.42 17.2867 134.647 17.3034C135.103 17.3342 135.718 17.4221 136.321 17.6455C137.528 18.0851 138.724 19.0786 138.701 21.2134C145.282 21.2231 148.573 21.2302 150.236 21.2302C151.055 21.2302 151.477 21.2275 151.693 21.2249C151.761 21.2231 151.818 21.2231 151.841 21.2222C152.205 17.6798 150.691 14.6552 147.446 12.5722C144.189 10.4814 139.179 9.3419 132.575 9.61446C125.583 10.2123 120.665 11.656 116.964 15.5423L116.907 15.5089C120.619 11.6059 125.561 10.1552 132.563 9.55994C145.806 9.01393 152.672 14.1223 151.909 21.2706C151.898 21.2803 151.852 21.2847 150.224 21.2847C148.573 21.2847 145.26 21.2803 138.633 21.2706Z" fill="#231F20"/>
<path d="M15.167 9.43166L16.6359 0H56.1588L54.6786 9.43166H15.167Z" fill="#ED1C24"/>
<path d="M9.25732 47.3534L11.7168 29.7527L0 29.8168L1.46886 20.321L13.1971 20.3852L14.9962 10.761H28.8537L27.3734 20.3852L40.0012 20.321L38.5323 29.8168L25.9046 29.7527L24.6748 38.0475H49.8392L48.3704 47.3534H9.25732Z" fill="#ED1C24"/>
<path d="M106.408 47.3517V47.3534V47.3517ZM82.883 47.3517V47.3534V47.3517ZM73.2044 47.3534V47.3517V47.3534ZM64.9263 47.3517V47.3534V47.3517ZM92.8008 47.2963L96.2282 26.4054L96.0915 26.3747L82.8375 47.2963H73.2727L68.1943 26.3246L68.0463 26.329L64.858 47.2963H51.3193L57.0354 10.754H77.4858L81.4142 28.1806L81.4939 28.171L81.5508 28.1956L92.3567 10.754H111.987L106.339 47.2963H92.8008ZM81.4142 28.1806L81.4597 28.3547L81.5508 28.1956L81.4825 28.1718L81.4142 28.1806ZM68.0463 26.329L68.126 26.3342V26.3351L68.0463 26.329ZM68.126 26.3342L68.1943 26.3246L68.126 26.3351V26.3342Z" fill="#231F20"/>
<path d="M106.408 47.4079V47.3534L106.476 47.3578V47.4079H106.408ZM92.7213 47.4079H92.6416V47.3464L96.0348 26.7272L82.9516 47.3771L82.8833 47.3517L96.1601 26.3984L92.7213 47.3534H106.408V47.4079H92.7213ZM82.8833 47.4079V47.3534L82.9516 47.3771L82.9288 47.4079H82.8833ZM73.2047 47.4079H73.1477L73.1363 47.3622L73.2047 47.3534H82.8833V47.4079H73.2047ZM64.9266 47.4079V47.3534L64.9949 47.3578V47.4079H64.9266ZM51.2399 47.4079H51.1602V47.3464L51.2399 47.3534H64.9266V47.4079H51.2399ZM68.1376 26.7105L64.9949 47.3578L64.9266 47.3517L68.1262 26.3351L73.2047 47.3517L73.1363 47.3622L68.1376 26.7105ZM106.408 47.3517L112.067 10.6995H92.3114L81.4827 28.1718L77.5544 10.6995V10.6423H77.6113L77.6227 10.6898L81.5169 27.9898L92.2431 10.6731L92.2659 10.6423H112.067V10.6977V10.6423H112.147L112.136 10.7039L106.476 47.3578L106.408 47.3517ZM51.2399 47.3517L51.1602 47.3464L56.899 10.6924L56.9104 10.6423H77.5544V10.6995H56.9787L51.2399 47.3534V47.3517Z" fill="#231F20"/>
<path d="M92.7207 47.3533L96.1595 26.3983L82.8827 47.3516V47.3533H73.204V47.3516L68.1256 26.335L68.1939 26.3245L73.2724 47.2962H82.8371L96.0912 26.3746L96.2278 26.4053L92.8004 47.2962H106.339L111.987 10.7539H92.3563L81.5504 28.1955L81.4935 28.1709L81.4138 28.1805L77.4854 10.7539H57.035L51.319 47.2962H64.8577L68.0459 26.3289L68.1939 26.3245L68.1256 26.3341L68.0459 26.3289L68.1256 26.335L64.926 47.3516V47.3533H51.2393L56.9781 10.6994H77.5537L81.4821 28.1717L92.3108 10.6994H112.067L106.407 47.3516V47.3533H92.7207ZM81.4138 28.1805L81.4821 28.1717L81.5504 28.1955L81.4593 28.3546L81.4138 28.1805Z" fill="#231F20"/>
</svg>
